<svg id="Layer_1" data-name="Layer 1" xmlns="http://www.w3.org/2000/svg" viewBox="0 0 256 256"><defs><style>.cls-1{fill:#dadada;}.cls-2,.cls-3{fill:#706f6f;}.cls-3{isolation:isolate;opacity:0.4;}</style></defs><rect class="cls-1" width="256" height="256"/><path class="cls-2" d="M59.9,93.54v76a12,12,0,1,0,24,0v-84h-16A8,8,0,0,0,59.9,93.54Zm68,40h-24a4,4,0,0,0,0,8h24a4,4,0,0,0,0-8Zm16,8h24a4,4,0,0,0,0-8h-24a4,4,0,0,0,0,8Zm-16,16h-24a4,4,0,0,0,0,8h24a4,4,0,0,0,0-8Zm40,0h-24a4,4,0,0,0,0,8h24a4,4,0,0,0,0-8Z"/><path class="cls-3" d="M179.9,69.54h-88a8,8,0,0,0-8,8v92a12,12,0,0,1-12,12h100a16,16,0,0,0,16-16v-88A8,8,0,0,0,179.9,69.54Zm-52,96h-24a4,4,0,0,1,0-8h24a4,4,0,0,1,0,8Zm0-24h-24a4,4,0,0,1,0-8h24a4,4,0,0,1,0,8Zm40,24h-24a4,4,0,0,1,0-8h24a4,4,0,0,1,0,8Zm0-24h-24a4,4,0,0,1,0-8h24a4,4,0,0,1,0,8Zm4-28a4,4,0,0,1-4,4h-64a4,4,0,0,1-4-4v-24a4,4,0,0,1,4-4h64a4,4,0,0,1,4,4Z"/></svg>